<?xml version="1.0" standalone="no"?>
<!DOCTYPE svg PUBLIC "-//W3C//DTD SVG 20010904//EN"
 "http://www.w3.org/TR/2001/REC-SVG-20010904/DTD/svg10.dtd">
<svg version="1.0" xmlns="http://www.w3.org/2000/svg"
 width="260.000000pt" height="260.000000pt" viewBox="0 0 260.000000 260.000000"
 preserveAspectRatio="xMidYMid meet">
<metadata>
Created by potrace 1.14, written by Peter Selinger 2001-2017
</metadata>
<g transform="translate(0.000000,260.000000) scale(0.100000,-0.100000)"
fill="#000000" stroke="none">
<path d="M1145 2525 c-163 -33 -335 -152 -431 -296 -89 -135 -116 -241 -116
-461 l0 -158 -69 0 c-129 0 -234 -63 -289 -175 l-25 -50 0 -545 0 -545 28 -57
c32 -65 89 -121 156 -152 46 -21 49 -21 896 -21 l850 0 52 24 c69 31 134 102
162 175 22 58 22 65 19 590 l-3 531 -27 52 c-60 113 -144 166 -275 171 l-83 4
0 162 c0 193 -16 272 -82 399 -80 155 -244 289 -418 342 -77 23 -257 28 -345
10z m271 -321 c102 -34 198 -125 235 -223 18 -46 23 -84 27 -213 l5 -158 -387
0 -386 0 0 133 c0 205 27 285 129 381 105 98 240 126 377 80z m314 -994 l0
-140 -54 0 -54 0 -12 85 c-9 64 -17 88 -30 95 -10 6 -55 10 -99 10 l-81 0 0
-417 c0 -230 4 -424 9 -431 4 -7 33 -16 64 -19 l57 -6 0 -38 0 -39 -235 0
-235 0 0 39 0 38 52 6 c28 4 55 12 60 19 4 7 8 201 8 431 l0 417 -89 0 c-59 0
-92 -4 -99 -12 -6 -7 -16 -50 -22 -95 l-12 -83 -54 0 -54 0 0 140 0 140 440 0
440 0 0 -140z"/>
</g>
</svg>
