<?xml version="1.0" encoding="utf-8"?>
<!-- Generator: Adobe Illustrator 26.3.1, SVG Export Plug-In . SVG Version: 6.00 Build 0)  -->
<svg version="1.1" id="Layer_1" xmlns="http://www.w3.org/2000/svg" xmlns:xlink="http://www.w3.org/1999/xlink" x="0px" y="0px"
	 viewBox="0 0 210 239.9" style="enable-background:new 0 0 210 239.9;" xml:space="preserve">
<style type="text/css">
	.st0{fill:#FFFFFF;}
	.st1{fill:#982EF7;}
</style>
<g>
	<path class="st0" d="M61.3,115.1c28.9,0,57.8,0,86.8,0c0,9.2,0,18.5,0,27.8c-3.7,0-7.4,0-11.1,0c-1.1-6-1.6-12-3-17.9
		c-5.9-1.5-12.2-0.2-18.3-0.6c0,25.9,0,51.7,0,77.6c0,1.6,0.5,3.1,0.9,4.6c3.7,1.1,7.6,1.3,11.4,1.6c0,2.6,0,5.1,0,7.7
		c-15.3,0-30.7,0-46,0c0-2.6,0-5.2,0-7.7c3.8-0.3,7.5-0.6,11.2-1.6c0.4-1.5,0.8-3,0.8-4.6c0-25.9,0-51.7,0-77.6
		c-5.6,0.1-11.1-0.1-16.7,0.1c-2.1-0.3-2,2.1-2.3,3.4c-0.8,5-1.6,10-2.4,15c-3.7,0-7.4,0-11,0C61.3,133.6,61.3,124.4,61.3,115.1
		L61.3,115.1z"/>
	<path class="st1" d="M74.4,7.3c14-7.2,30.6-9.1,45.9-5.6c16.1,3.7,30.6,13.5,40,27c7.9,11.1,12.1,24.6,12.2,38.1
		c0,7.7,0,15.4,0,23.1c5.4,0.1,11-0.5,16.3,1.2c9.4,2.8,17.1,10.6,19.9,19.9c1.3,4.1,1.4,8.5,1.4,12.8c0,28.3,0,56.7,0,85
		c0.1,8.1-3,16.4-8.9,22.1c-5.7,5.9-13.9,9-22.1,8.9c-48.7,0.1-97.3,0-146,0c-5.5,0-11.1-0.6-16-3.1c-10.1-4.8-17-15.6-17-26.8
		c-0.1-28.4,0-56.7-0.1-85.1c0-4.9,0-9.9,1.6-14.5c3-9.1,10.5-16.5,19.6-19.2c5.2-1.7,10.8-1.2,16.3-1.2c0.4-13.3-1.3-27,2.3-40
		C44.6,31.7,57.5,15.8,74.4,7.3 M100.5,30.5c-16.9,1.8-31.2,16.4-32.6,33.4c-0.4,8.7-0.1,17.4-0.2,26.1c24.8,0,49.7,0,74.5,0
		c-0.4-9.9,0.8-20-0.7-29.9C138.1,41.5,119.1,27.8,100.5,30.5 M61.3,115.1c0,9.2,0,18.5,0,27.7c3.7,0,7.4,0,11,0
		c0.9-5,1.6-10,2.4-15c0.3-1.4,0.2-3.7,2.3-3.4c5.6-0.2,11.1,0,16.7-0.1c0,25.9,0,51.7,0,77.6c0,1.6-0.4,3.1-0.8,4.6
		c-3.7,1-7.4,1.3-11.2,1.6c0,2.6,0,5.1,0,7.7c15.3,0,30.7,0,46,0c0-2.6,0-5.2,0-7.7c-3.8-0.3-7.7-0.5-11.4-1.6
		c-0.4-1.5-0.9-3-0.9-4.6c0-25.9,0-51.7,0-77.6c6.1,0.4,12.4-0.9,18.3,0.6c1.4,5.9,2,11.9,3,17.9c3.7,0,7.4,0,11.1,0
		c0-9.3,0-18.5,0-27.8C119.1,115.1,90.2,115.1,61.3,115.1L61.3,115.1z"/>
</g>
</svg>
